<svg width="118" height="74" viewBox="0 0 118 74" fill="none" xmlns="http://www.w3.org/2000/svg">
<mask id="path-1-inside-1_44_532" fill="white">
<path fill-rule="evenodd" clip-rule="evenodd" d="M0 8C0 3.58172 3.58172 0 8 0H110C114.418 0 118 3.58172 118 8V29.1277C112.477 29.1277 108 32.6522 108 37C108 41.3478 112.477 44.8724 118 44.8724V66C118 70.4183 114.418 74 110 74H8C3.58172 74 0 70.4183 0 66V44.8724C5.52285 44.8724 10 41.3478 10 37C10 32.6522 5.52285 29.1277 0 29.1277V8Z"/>
</mask>
<path fill-rule="evenodd" clip-rule="evenodd" d="M0 8C0 3.58172 3.58172 0 8 0H110C114.418 0 118 3.58172 118 8V29.1277C112.477 29.1277 108 32.6522 108 37C108 41.3478 112.477 44.8724 118 44.8724V66C118 70.4183 114.418 74 110 74H8C3.58172 74 0 70.4183 0 66V44.8724C5.52285 44.8724 10 41.3478 10 37C10 32.6522 5.52285 29.1277 0 29.1277V8Z" fill="#F44336" fill-opacity="0.07"/>
<path d="M118 29.1277V29.6277H118.5V29.1277H118ZM118 44.8724H118.5V44.3724H118V44.8724ZM0 44.8724V44.3724H-0.5V44.8724H0ZM0 29.1277H-0.5V29.6277H0V29.1277ZM8 -0.5C3.30558 -0.5 -0.5 3.30558 -0.5 8H0.5C0.5 3.85786 3.85786 0.5 8 0.5V-0.5ZM110 -0.5H8V0.5H110V-0.5ZM118.5 8C118.5 3.30558 114.694 -0.5 110 -0.5V0.5C114.142 0.5 117.5 3.85786 117.5 8H118.5ZM118.5 29.1277V8H117.5V29.1277H118.5ZM108.5 37C108.5 33.0332 112.635 29.6277 118 29.6277V28.6277C112.319 28.6277 107.5 32.2713 107.5 37H108.5ZM118 44.3724C112.635 44.3724 108.5 40.9668 108.5 37H107.5C107.5 41.7288 112.319 45.3724 118 45.3724V44.3724ZM118.5 66V44.8724H117.5V66H118.5ZM110 74.5C114.694 74.5 118.5 70.6944 118.5 66H117.5C117.5 70.1421 114.142 73.5 110 73.5V74.5ZM8 74.5H110V73.5H8V74.5ZM-0.5 66C-0.5 70.6944 3.30558 74.5 8 74.5V73.5C3.85786 73.5 0.5 70.1421 0.5 66H-0.5ZM-0.5 44.8724V66H0.5V44.8724H-0.5ZM9.5 37C9.5 40.9668 5.36477 44.3724 0 44.3724V45.3724C5.68093 45.3724 10.5 41.7288 10.5 37H9.5ZM0 29.6277C5.36477 29.6277 9.5 33.0332 9.5 37H10.5C10.5 32.2713 5.68093 28.6277 0 28.6277V29.6277ZM-0.5 8V29.1277H0.5V8H-0.5Z" fill="#F44336" fill-opacity="0.5" mask="url(#path-1-inside-1_44_532)"/>
<path d="M54.5417 18.3333H59.5V29.1723L54.5417 35.3333V18.3333Z" fill="#F44336"/>
<path d="M63.805 18.3333H59.5V29.1909L63.805 35.5531V18.3333Z" fill="#F44336" fill-opacity="0.51"/>
<circle cx="59.5" cy="15.5" r="8" fill="white" stroke="#F44336"/>
<path d="M57.0547 49.8809C56.7656 50.2949 56.3613 50.6055 55.8418 50.8125C55.3262 51.0156 54.7246 51.1172 54.0371 51.1172C53.3418 51.1172 52.7246 50.9551 52.1855 50.6309C51.6465 50.3027 51.2285 49.8379 50.9316 49.2363C50.6387 48.6348 50.4883 47.9375 50.4805 47.1445V46.4004C50.4805 45.1152 50.7793 44.1191 51.377 43.4121C51.9785 42.7051 52.8223 42.3516 53.9082 42.3516C54.7988 42.3516 55.5156 42.5801 56.0586 43.0371C56.6016 43.4902 56.9336 44.1348 57.0547 44.9707H55.9297C55.7188 43.8418 55.0469 43.2773 53.9141 43.2773C53.1602 43.2773 52.5879 43.543 52.1973 44.0742C51.8105 44.6016 51.6152 45.3672 51.6113 46.3711V47.0684C51.6113 48.0254 51.8301 48.7871 52.2676 49.3535C52.7051 49.916 53.2969 50.1973 54.043 50.1973C54.4648 50.1973 54.834 50.1504 55.1504 50.0566C55.4668 49.9629 55.7285 49.8047 55.9355 49.582V47.666H53.9609V46.752H57.0547V49.8809ZM61.3965 51.1172C60.5371 51.1172 59.8379 50.8359 59.2988 50.2734C58.7598 49.707 58.4902 48.9512 58.4902 48.0059V47.8066C58.4902 47.1777 58.6094 46.6172 58.8477 46.125C59.0898 45.6289 59.4258 45.2422 59.8555 44.9648C60.2891 44.6836 60.7578 44.543 61.2617 44.543C62.0859 44.543 62.7266 44.8145 63.1836 45.3574C63.6406 45.9004 63.8691 46.6777 63.8691 47.6895V48.1406H59.5742C59.5898 48.7656 59.7715 49.2715 60.1191 49.6582C60.4707 50.041 60.916 50.2324 61.4551 50.2324C61.8379 50.2324 62.1621 50.1543 62.4277 49.998C62.6934 49.8418 62.9258 49.6348 63.125 49.377L63.7871 49.8926C63.2559 50.709 62.459 51.1172 61.3965 51.1172ZM61.2617 45.4336C60.8242 45.4336 60.457 45.5938 60.1602 45.9141C59.8633 46.2305 59.6797 46.6758 59.6094 47.25H62.7852V47.168C62.7539 46.6172 62.6055 46.1914 62.3398 45.8906C62.0742 45.5859 61.7148 45.4336 61.2617 45.4336ZM66.5996 43.125V44.6602H67.7832V45.498H66.5996V49.4297C66.5996 49.6836 66.6523 49.875 66.7578 50.0039C66.8633 50.1289 67.043 50.1914 67.2969 50.1914C67.4219 50.1914 67.5938 50.168 67.8125 50.1211V51C67.5273 51.0781 67.25 51.1172 66.9805 51.1172C66.4961 51.1172 66.1309 50.9707 65.8848 50.6777C65.6387 50.3848 65.5156 49.9688 65.5156 49.4297V45.498H64.3613V44.6602H65.5156V43.125H66.5996ZM39.2891 60.7227L39.7227 56.4688H44.0938V57.4707H40.6426L40.3848 59.7969C40.8027 59.5508 41.2773 59.4277 41.8086 59.4277C42.5859 59.4277 43.2031 59.6855 43.6602 60.2012C44.1172 60.7129 44.3457 61.4062 44.3457 62.2812C44.3457 63.1602 44.1074 63.8535 43.6309 64.3613C43.1582 64.8652 42.4961 65.1172 41.6445 65.1172C40.8906 65.1172 40.2754 64.9082 39.7988 64.4902C39.3223 64.0723 39.0508 63.4941 38.9844 62.7559H40.0098C40.0762 63.2441 40.25 63.6133 40.5312 63.8633C40.8125 64.1094 41.1836 64.2324 41.6445 64.2324C42.1484 64.2324 42.543 64.0605 42.8281 63.7168C43.1172 63.373 43.2617 62.8984 43.2617 62.293C43.2617 61.7227 43.1055 61.2656 42.793 60.9219C42.4844 60.5742 42.0723 60.4004 41.5566 60.4004C41.084 60.4004 40.7129 60.5039 40.4434 60.7109L40.1562 60.9453L39.2891 60.7227ZM50.8789 61.3613C50.8789 62.6309 50.6621 63.5742 50.2285 64.1914C49.7949 64.8086 49.1172 65.1172 48.1953 65.1172C47.2852 65.1172 46.6113 64.8164 46.1738 64.2148C45.7363 63.6094 45.5098 62.707 45.4941 61.5078V60.0605C45.4941 58.8066 45.7109 57.875 46.1445 57.2656C46.5781 56.6562 47.2578 56.3516 48.1836 56.3516C49.1016 56.3516 49.7773 56.6465 50.2109 57.2363C50.6445 57.8223 50.8672 58.7285 50.8789 59.9551V61.3613ZM49.7949 59.8789C49.7949 58.9609 49.666 58.293 49.4082 57.875C49.1504 57.4531 48.7422 57.2422 48.1836 57.2422C47.6289 57.2422 47.2246 57.4512 46.9707 57.8691C46.7168 58.2871 46.5859 58.9297 46.5781 59.7969V61.5312C46.5781 62.4531 46.7109 63.1348 46.9766 63.5762C47.2461 64.0137 47.6523 64.2324 48.1953 64.2324C48.7305 64.2324 49.127 64.0254 49.3848 63.6113C49.6465 63.1973 49.7832 62.5449 49.7949 61.6543V59.8789ZM52.1738 58.1094C52.1738 57.5977 52.3359 57.1758 52.6602 56.8438C52.9883 56.5117 53.4082 56.3457 53.9199 56.3457C54.4395 56.3457 54.8594 56.5137 55.1797 56.8496C55.5039 57.1816 55.666 57.6133 55.666 58.1445V58.5605C55.666 59.0762 55.502 59.498 55.1738 59.8262C54.8496 60.1504 54.4355 60.3125 53.9316 60.3125C53.4238 60.3125 53.0039 60.1504 52.6719 59.8262C52.3398 59.498 52.1738 59.0625 52.1738 58.5195V58.1094ZM52.9824 58.5605C52.9824 58.8652 53.0684 59.1172 53.2402 59.3164C53.4121 59.5117 53.6426 59.6094 53.9316 59.6094C54.209 59.6094 54.4316 59.5137 54.5996 59.3223C54.7715 59.1309 54.8574 58.8691 54.8574 58.5371V58.1094C54.8574 57.8047 54.7734 57.5527 54.6055 57.3535C54.4375 57.1543 54.209 57.0547 53.9199 57.0547C53.6309 57.0547 53.4023 57.1543 53.2344 57.3535C53.0664 57.5527 52.9824 57.8125 52.9824 58.1328V58.5605ZM56.3281 62.9082C56.3281 62.3965 56.4902 61.9766 56.8145 61.6484C57.1426 61.3164 57.5625 61.1504 58.0742 61.1504C58.5859 61.1504 59.0059 61.3145 59.334 61.6426C59.6621 61.9707 59.8262 62.4062 59.8262 62.9492V63.3652C59.8262 63.877 59.6621 64.2988 59.334 64.6309C59.0098 64.959 58.5938 65.123 58.0859 65.123C57.5781 65.123 57.1582 64.9609 56.8262 64.6367C56.4941 64.3086 56.3281 63.873 56.3281 63.3301V62.9082ZM57.1367 63.3652C57.1367 63.6738 57.2227 63.9277 57.3945 64.127C57.5664 64.3223 57.7969 64.4199 58.0859 64.4199C58.3672 64.4199 58.5918 64.3242 58.7598 64.1328C58.9277 63.9375 59.0117 63.6738 59.0117 63.3418V62.9082C59.0117 62.5996 58.9258 62.3477 58.7539 62.1523C58.5859 61.957 58.3594 61.8594 58.0742 61.8594C57.7969 61.8594 57.5703 61.957 57.3945 62.1523C57.2227 62.3438 57.1367 62.6035 57.1367 62.9316V63.3652ZM54.1777 64.3555L53.5625 63.9688L57.7285 57.3008L58.3438 57.6875L54.1777 64.3555ZM70.877 61.0098C70.877 61.8457 70.7363 62.5762 70.4551 63.2012C70.1738 63.8223 69.7754 64.2969 69.2598 64.625C68.7441 64.9531 68.1426 65.1172 67.4551 65.1172C66.7832 65.1172 66.1875 64.9531 65.668 64.625C65.1484 64.293 64.7441 63.8223 64.4551 63.2129C64.1699 62.5996 64.0234 61.8906 64.0156 61.0859V60.4707C64.0156 59.6504 64.1582 58.9258 64.4434 58.2969C64.7285 57.668 65.1309 57.1875 65.6504 56.8555C66.1738 56.5195 66.7715 56.3516 67.4434 56.3516C68.127 56.3516 68.7285 56.5176 69.248 56.8496C69.7715 57.1777 70.1738 57.6562 70.4551 58.2852C70.7363 58.9102 70.877 59.6387 70.877 60.4707V61.0098ZM69.7578 60.459C69.7578 59.4473 69.5547 58.6719 69.1484 58.1328C68.7422 57.5898 68.1738 57.3184 67.4434 57.3184C66.7324 57.3184 66.1719 57.5898 65.7617 58.1328C65.3555 58.6719 65.1465 59.4219 65.1348 60.3828V61.0098C65.1348 61.9902 65.3398 62.7617 65.75 63.3242C66.1641 63.8828 66.7324 64.1621 67.4551 64.1621C68.1816 64.1621 68.7441 63.8984 69.1426 63.3711C69.541 62.8398 69.7461 62.0801 69.7578 61.0918V60.459ZM72.9277 65V59.498H71.9258V58.6602H72.9277V58.0098C72.9277 57.3301 73.1094 56.8047 73.4727 56.4336C73.8359 56.0625 74.3496 55.877 75.0137 55.877C75.2637 55.877 75.5117 55.9102 75.7578 55.9766L75.6992 56.8555C75.5156 56.8203 75.3203 56.8027 75.1133 56.8027C74.7617 56.8027 74.4902 56.9062 74.2988 57.1133C74.1074 57.3164 74.0117 57.6094 74.0117 57.9922V58.6602H75.3652V59.498H74.0117V65H72.9277ZM77.0996 65V59.498H76.0977V58.6602H77.0996V58.0098C77.0996 57.3301 77.2812 56.8047 77.6445 56.4336C78.0078 56.0625 78.5215 55.877 79.1855 55.877C79.4355 55.877 79.6836 55.9102 79.9297 55.9766L79.8711 56.8555C79.6875 56.8203 79.4922 56.8027 79.2852 56.8027C78.9336 56.8027 78.6621 56.9062 78.4707 57.1133C78.2793 57.3164 78.1836 57.6094 78.1836 57.9922V58.6602H79.5371V59.498H78.1836V65H77.0996Z" fill="#F44336"/>
</svg>
