<svg width="118" height="74" viewBox="0 0 118 74" fill="none" xmlns="http://www.w3.org/2000/svg">
<mask id="path-1-inside-1_44_545" fill="white">
<path fill-rule="evenodd" clip-rule="evenodd" d="M0 8C0 3.58172 3.58172 0 8 0H110C114.418 0 118 3.58172 118 8V29.1277C112.477 29.1277 108 32.6522 108 37C108 41.3478 112.477 44.8724 118 44.8724V66C118 70.4183 114.418 74 110 74H8C3.58172 74 0 70.4183 0 66V44.8724C5.52285 44.8724 10 41.3478 10 37C10 32.6522 5.52285 29.1277 0 29.1277V8Z"/>
</mask>
<path fill-rule="evenodd" clip-rule="evenodd" d="M0 8C0 3.58172 3.58172 0 8 0H110C114.418 0 118 3.58172 118 8V29.1277C112.477 29.1277 108 32.6522 108 37C108 41.3478 112.477 44.8724 118 44.8724V66C118 70.4183 114.418 74 110 74H8C3.58172 74 0 70.4183 0 66V44.8724C5.52285 44.8724 10 41.3478 10 37C10 32.6522 5.52285 29.1277 0 29.1277V8Z" fill="#DFA82A" fill-opacity="0.07"/>
<path d="M118 29.1277V29.6277H118.5V29.1277H118ZM118 44.8724H118.5V44.3724H118V44.8724ZM0 44.8724V44.3724H-0.5V44.8724H0ZM0 29.1277H-0.5V29.6277H0V29.1277ZM8 -0.5C3.30558 -0.5 -0.5 3.30558 -0.5 8H0.5C0.5 3.85786 3.85786 0.5 8 0.5V-0.5ZM110 -0.5H8V0.5H110V-0.5ZM118.5 8C118.5 3.30558 114.694 -0.5 110 -0.5V0.5C114.142 0.5 117.5 3.85786 117.5 8H118.5ZM118.5 29.1277V8H117.5V29.1277H118.5ZM108.5 37C108.5 33.0332 112.635 29.6277 118 29.6277V28.6277C112.319 28.6277 107.5 32.2713 107.5 37H108.5ZM118 44.3724C112.635 44.3724 108.5 40.9668 108.5 37H107.5C107.5 41.7288 112.319 45.3724 118 45.3724V44.3724ZM118.5 66V44.8724H117.5V66H118.5ZM110 74.5C114.694 74.5 118.5 70.6944 118.5 66H117.5C117.5 70.1421 114.142 73.5 110 73.5V74.5ZM8 74.5H110V73.5H8V74.5ZM-0.5 66C-0.5 70.6944 3.30558 74.5 8 74.5V73.5C3.85786 73.5 0.5 70.1421 0.5 66H-0.5ZM-0.5 44.8724V66H0.5V44.8724H-0.5ZM9.5 37C9.5 40.9668 5.36477 44.3724 0 44.3724V45.3724C5.68093 45.3724 10.5 41.7288 10.5 37H9.5ZM0 29.6277C5.36477 29.6277 9.5 33.0332 9.5 37H10.5C10.5 32.2713 5.68093 28.6277 0 28.6277V29.6277ZM-0.5 8V29.1277H0.5V8H-0.5Z" fill="#DFA82A" fill-opacity="0.5" mask="url(#path-1-inside-1_44_545)"/>
<path d="M54.5417 18.3333H59.5V29.1723L54.5417 35.3333V18.3333Z" fill="#DFA82A"/>
<path d="M63.805 18.3333H59.5V29.1909L63.805 35.5531V18.3333Z" fill="#DCB04D" fill-opacity="0.5"/>
<circle cx="59.5" cy="15.5" r="8" fill="white" stroke="#DFA82A"/>
<path d="M57.0605 46.752V49.875C56.9551 50.0312 56.7871 50.207 56.5566 50.4023C56.3262 50.5938 56.0078 50.7617 55.6016 50.9062C55.1992 51.0469 54.6797 51.1172 54.043 51.1172C53.5234 51.1172 53.0449 51.0273 52.6074 50.8477C52.1738 50.6641 51.7969 50.3984 51.4766 50.0508C51.1602 49.6992 50.9141 49.2734 50.7383 48.7734C50.5664 48.2695 50.4805 47.6992 50.4805 47.0625V46.4004C50.4805 45.7637 50.5547 45.1953 50.7031 44.6953C50.8555 44.1953 51.0781 43.7715 51.3711 43.4238C51.6641 43.0723 52.0234 42.8066 52.4492 42.627C52.875 42.4434 53.3633 42.3516 53.9141 42.3516C54.5664 42.3516 55.1113 42.4648 55.5488 42.6914C55.9902 42.9141 56.334 43.2227 56.5801 43.6172C56.8301 44.0117 56.9902 44.4609 57.0605 44.9648H55.9297C55.8789 44.6562 55.7773 44.375 55.625 44.1211C55.4766 43.8672 55.2637 43.6641 54.9863 43.5117C54.709 43.3555 54.3516 43.2773 53.9141 43.2773C53.5195 43.2773 53.1777 43.3496 52.8887 43.4941C52.5996 43.6387 52.3613 43.8457 52.1738 44.1152C51.9863 44.3848 51.8457 44.7109 51.752 45.0938C51.6621 45.4766 51.6172 45.9082 51.6172 46.3887V47.0625C51.6172 47.5547 51.6738 47.9941 51.7871 48.3809C51.9043 48.7676 52.0703 49.0977 52.2852 49.3711C52.5 49.6406 52.7559 49.8457 53.0527 49.9863C53.3535 50.127 53.6855 50.1973 54.0488 50.1973C54.4512 50.1973 54.7773 50.1641 55.0273 50.0977C55.2773 50.0273 55.4727 49.9453 55.6133 49.8516C55.7539 49.7539 55.8613 49.6621 55.9355 49.5762V47.666H53.9609V46.752H57.0605ZM61.4023 51.1172C60.9609 51.1172 60.5605 51.043 60.2012 50.8945C59.8457 50.7422 59.5391 50.5293 59.2812 50.2559C59.0273 49.9824 58.832 49.6582 58.6953 49.2832C58.5586 48.9082 58.4902 48.498 58.4902 48.0527V47.8066C58.4902 47.291 58.5664 46.832 58.7188 46.4297C58.8711 46.0234 59.0781 45.6797 59.3398 45.3984C59.6016 45.1172 59.8984 44.9043 60.2305 44.7598C60.5625 44.6152 60.9062 44.543 61.2617 44.543C61.7148 44.543 62.1055 44.6211 62.4336 44.7773C62.7656 44.9336 63.0371 45.1523 63.248 45.4336C63.459 45.7109 63.6152 46.0391 63.7168 46.418C63.8184 46.793 63.8691 47.2031 63.8691 47.6484V48.1348H59.1348V47.25H62.7852V47.168C62.7695 46.8867 62.7109 46.6133 62.6094 46.3477C62.5117 46.082 62.3555 45.8633 62.1406 45.6914C61.9258 45.5195 61.6328 45.4336 61.2617 45.4336C61.0156 45.4336 60.7891 45.4863 60.582 45.5918C60.375 45.6934 60.1973 45.8457 60.0488 46.0488C59.9004 46.252 59.7852 46.5 59.7031 46.793C59.6211 47.0859 59.5801 47.4238 59.5801 47.8066V48.0527C59.5801 48.3535 59.6211 48.6367 59.7031 48.9023C59.7891 49.1641 59.9121 49.3945 60.0723 49.5938C60.2363 49.793 60.4336 49.9492 60.6641 50.0625C60.8984 50.1758 61.1641 50.2324 61.4609 50.2324C61.8438 50.2324 62.168 50.1543 62.4336 49.998C62.6992 49.8418 62.9316 49.6328 63.1309 49.3711L63.7871 49.8926C63.6504 50.0996 63.4766 50.2969 63.2656 50.4844C63.0547 50.6719 62.7949 50.8242 62.4863 50.9414C62.1816 51.0586 61.8203 51.1172 61.4023 51.1172ZM67.7891 44.6602V45.4922H64.3613V44.6602H67.7891ZM65.5215 43.1191H66.6055V49.4297C66.6055 49.6445 66.6387 49.8066 66.7051 49.916C66.7715 50.0254 66.8574 50.0977 66.9629 50.1328C67.0684 50.168 67.1816 50.1855 67.3027 50.1855C67.3926 50.1855 67.4863 50.1777 67.584 50.1621C67.6855 50.1426 67.7617 50.127 67.8125 50.1152L67.8184 51C67.7324 51.0273 67.6191 51.0527 67.4785 51.0762C67.3418 51.1035 67.1758 51.1172 66.9805 51.1172C66.7148 51.1172 66.4707 51.0645 66.248 50.959C66.0254 50.8535 65.8477 50.6777 65.7148 50.4316C65.5859 50.1816 65.5215 49.8457 65.5215 49.4238V43.1191ZM42.3359 56.4219V65H41.252V57.7754L39.0664 58.5723V57.5938L42.166 56.4219H42.3359ZM46.8945 60.9395L46.0273 60.7168L46.4551 56.4688H50.832V57.4707H47.375L47.1172 59.791C47.2734 59.7012 47.4707 59.6172 47.709 59.5391C47.9512 59.4609 48.2285 59.4219 48.541 59.4219C48.9355 59.4219 49.2891 59.4902 49.6016 59.627C49.9141 59.7598 50.1797 59.9512 50.3984 60.2012C50.6211 60.4512 50.791 60.752 50.9082 61.1035C51.0254 61.4551 51.084 61.8477 51.084 62.2812C51.084 62.6914 51.0273 63.0684 50.9141 63.4121C50.8047 63.7559 50.6387 64.0566 50.416 64.3145C50.1934 64.5684 49.9121 64.7656 49.5723 64.9062C49.2363 65.0469 48.8398 65.1172 48.3828 65.1172C48.0391 65.1172 47.7129 65.0703 47.4043 64.9766C47.0996 64.8789 46.8262 64.7324 46.584 64.5371C46.3457 64.3379 46.1504 64.0918 45.998 63.7988C45.8496 63.502 45.7559 63.1543 45.7168 62.7559H46.748C46.7949 63.0762 46.8887 63.3457 47.0293 63.5645C47.1699 63.7832 47.3535 63.9492 47.5801 64.0625C47.8105 64.1719 48.0781 64.2266 48.3828 64.2266C48.6406 64.2266 48.8691 64.1816 49.0684 64.0918C49.2676 64.002 49.4355 63.873 49.5723 63.7051C49.709 63.5371 49.8125 63.334 49.8828 63.0957C49.957 62.8574 49.9941 62.5898 49.9941 62.293C49.9941 62.0234 49.957 61.7734 49.8828 61.543C49.8086 61.3125 49.6973 61.1113 49.5488 60.9395C49.4043 60.7676 49.2266 60.6348 49.0156 60.541C48.8047 60.4434 48.5625 60.3945 48.2891 60.3945C47.9258 60.3945 47.6504 60.4434 47.4629 60.541C47.2793 60.6387 47.0898 60.7715 46.8945 60.9395ZM52.1797 58.5605V58.1094C52.1797 57.7852 52.25 57.4902 52.3906 57.2246C52.5312 56.959 52.7324 56.7461 52.9941 56.5859C53.2559 56.4258 53.5664 56.3457 53.9258 56.3457C54.293 56.3457 54.6055 56.4258 54.8633 56.5859C55.125 56.7461 55.3262 56.959 55.4668 57.2246C55.6074 57.4902 55.6777 57.7852 55.6777 58.1094V58.5605C55.6777 58.877 55.6074 59.168 55.4668 59.4336C55.3301 59.6992 55.1309 59.9121 54.8691 60.0723C54.6113 60.2324 54.3008 60.3125 53.9375 60.3125C53.5742 60.3125 53.2598 60.2324 52.9941 60.0723C52.7324 59.9121 52.5312 59.6992 52.3906 59.4336C52.25 59.168 52.1797 58.877 52.1797 58.5605ZM52.9941 58.1094V58.5605C52.9941 58.7402 53.0273 58.9102 53.0938 59.0703C53.1641 59.2305 53.2695 59.3613 53.4102 59.4629C53.5508 59.5605 53.7266 59.6094 53.9375 59.6094C54.1484 59.6094 54.3223 59.5605 54.459 59.4629C54.5957 59.3613 54.6973 59.2305 54.7637 59.0703C54.8301 58.9102 54.8633 58.7402 54.8633 58.5605V58.1094C54.8633 57.9258 54.8281 57.7539 54.7578 57.5938C54.6914 57.4297 54.5879 57.2988 54.4473 57.2012C54.3105 57.0996 54.1367 57.0488 53.9258 57.0488C53.7188 57.0488 53.5449 57.0996 53.4043 57.2012C53.2676 57.2988 53.1641 57.4297 53.0938 57.5938C53.0273 57.7539 52.9941 57.9258 52.9941 58.1094ZM56.334 63.3652V62.9082C56.334 62.5879 56.4043 62.2949 56.5449 62.0293C56.6855 61.7637 56.8867 61.5508 57.1484 61.3906C57.4102 61.2305 57.7207 61.1504 58.0801 61.1504C58.4473 61.1504 58.7598 61.2305 59.0176 61.3906C59.2793 61.5508 59.4805 61.7637 59.6211 62.0293C59.7617 62.2949 59.832 62.5879 59.832 62.9082V63.3652C59.832 63.6855 59.7617 63.9785 59.6211 64.2441C59.4844 64.5098 59.2852 64.7227 59.0234 64.8828C58.7656 65.043 58.4551 65.123 58.0918 65.123C57.7285 65.123 57.416 65.043 57.1543 64.8828C56.8926 64.7227 56.6895 64.5098 56.5449 64.2441C56.4043 63.9785 56.334 63.6855 56.334 63.3652ZM57.1484 62.9082V63.3652C57.1484 63.5449 57.1816 63.7168 57.248 63.8809C57.3184 64.041 57.4238 64.1719 57.5645 64.2734C57.7051 64.3711 57.8809 64.4199 58.0918 64.4199C58.3027 64.4199 58.4766 64.3711 58.6133 64.2734C58.7539 64.1719 58.8574 64.041 58.9238 63.8809C58.9902 63.7207 59.0234 63.5488 59.0234 63.3652V62.9082C59.0234 62.7246 58.9883 62.5527 58.918 62.3926C58.8516 62.2324 58.748 62.1035 58.6074 62.0059C58.4707 61.9043 58.2949 61.8535 58.0801 61.8535C57.873 61.8535 57.6992 61.9043 57.5586 62.0059C57.4219 62.1035 57.3184 62.2324 57.248 62.3926C57.1816 62.5527 57.1484 62.7246 57.1484 62.9082ZM58.3496 57.6816L54.1836 64.3496L53.5742 63.9629L57.7402 57.2949L58.3496 57.6816ZM70.8887 60.4648V61.0039C70.8887 61.6445 70.8086 62.2188 70.6484 62.7266C70.4883 63.2344 70.2578 63.666 69.957 64.0215C69.6562 64.377 69.2949 64.6484 68.873 64.8359C68.4551 65.0234 67.9863 65.1172 67.4668 65.1172C66.9629 65.1172 66.5 65.0234 66.0781 64.8359C65.6602 64.6484 65.2969 64.377 64.9883 64.0215C64.6836 63.666 64.4473 63.2344 64.2793 62.7266C64.1113 62.2188 64.0273 61.6445 64.0273 61.0039V60.4648C64.0273 59.8242 64.1094 59.252 64.2734 58.748C64.4414 58.2402 64.6777 57.8086 64.9824 57.4531C65.2871 57.0938 65.6484 56.8203 66.0664 56.6328C66.4883 56.4453 66.9512 56.3516 67.4551 56.3516C67.9746 56.3516 68.4434 56.4453 68.8613 56.6328C69.2832 56.8203 69.6445 57.0938 69.9453 57.4531C70.25 57.8086 70.4824 58.2402 70.6426 58.748C70.8066 59.252 70.8887 59.8242 70.8887 60.4648ZM69.7695 61.0039V60.4531C69.7695 59.9453 69.7168 59.4961 69.6113 59.1055C69.5098 58.7148 69.3594 58.3867 69.1602 58.1211C68.9609 57.8555 68.7168 57.6543 68.4277 57.5176C68.1426 57.3809 67.8184 57.3125 67.4551 57.3125C67.1035 57.3125 66.7852 57.3809 66.5 57.5176C66.2188 57.6543 65.9766 57.8555 65.7734 58.1211C65.5742 58.3867 65.4199 58.7148 65.3105 59.1055C65.2012 59.4961 65.1465 59.9453 65.1465 60.4531V61.0039C65.1465 61.5156 65.2012 61.9688 65.3105 62.3633C65.4199 62.7539 65.5762 63.084 65.7793 63.3535C65.9863 63.6191 66.2305 63.8203 66.5117 63.957C66.7969 64.0938 67.1152 64.1621 67.4668 64.1621C67.834 64.1621 68.1602 64.0938 68.4453 63.957C68.7305 63.8203 68.9707 63.6191 69.166 63.3535C69.3652 63.084 69.5156 62.7539 69.6172 62.3633C69.7188 61.9688 69.7695 61.5156 69.7695 61.0039ZM74.0352 65H72.9512V57.9922C72.9512 57.5352 73.0332 57.1504 73.1973 56.8379C73.3652 56.5215 73.6055 56.2832 73.918 56.123C74.2305 55.959 74.6016 55.877 75.0312 55.877C75.1562 55.877 75.2812 55.8848 75.4062 55.9004C75.5352 55.916 75.6602 55.9395 75.7812 55.9707L75.7227 56.8555C75.6406 56.8359 75.5469 56.8223 75.4414 56.8145C75.3398 56.8066 75.2383 56.8027 75.1367 56.8027C74.9062 56.8027 74.707 56.8496 74.5391 56.9434C74.375 57.0332 74.25 57.166 74.1641 57.3418C74.0781 57.5176 74.0352 57.7344 74.0352 57.9922V65ZM75.3828 58.6602V59.4922H71.9492V58.6602H75.3828ZM78.207 65H77.123V57.9922C77.123 57.5352 77.2051 57.1504 77.3691 56.8379C77.5371 56.5215 77.7773 56.2832 78.0898 56.123C78.4023 55.959 78.7734 55.877 79.2031 55.877C79.3281 55.877 79.4531 55.8848 79.5781 55.9004C79.707 55.916 79.832 55.9395 79.9531 55.9707L79.8945 56.8555C79.8125 56.8359 79.7188 56.8223 79.6133 56.8145C79.5117 56.8066 79.4102 56.8027 79.3086 56.8027C79.0781 56.8027 78.8789 56.8496 78.7109 56.9434C78.5469 57.0332 78.4219 57.166 78.3359 57.3418C78.25 57.5176 78.207 57.7344 78.207 57.9922V65ZM79.5547 58.6602V59.4922H76.1211V58.6602H79.5547Z" fill="#DFA82A"/>
</svg>
