<svg width="321" height="176" viewBox="0 0 321 176" fill="none" xmlns="http://www.w3.org/2000/svg">
<path d="M78.0601 164.23C63.0601 152.47 52.6901 137.4 46.0601 119.64C42.0601 108.95 40.4001 97.82 39.9001 86.49C39.9001 85.32 39.0601 83.49 40.8201 83.08C42.5801 82.67 42.5501 84.6 42.9201 85.76C49.7701 107.1 57.4001 128.1 68.6501 147.6C71.3201 151.24 72.5301 155.91 76.4201 158.71L78.0001 162.44C78.0001 163 78 163.63 78.0601 164.23Z" fill="#81BB47"/>
<path d="M76.42 158.71C72.53 155.91 71.32 151.24 68.65 147.6C67.92 142.2 66.96 136.82 66.5 131.41C65.71 122.29 66.83 113.26 68.33 104.25C69.33 116.86 67.45 129.72 72.04 143.52C75.17 130.97 81.2 121.52 88.04 112.52C81.28 127.21 73 141.5 76.42 158.71Z" fill="#DCB04D"/>
<path d="M120.9 76.84C116.38 76.76 115.28 74.05 115.9 70.16C116.73 64.73 119.78 60.39 122.9 55.94C126.35 60.77 125.84 69.56 121.9 75.94L121.98 75.88C121.836 75.8681 121.691 75.8875 121.555 75.9369C121.42 75.9863 121.296 76.0645 121.193 76.1662C121.091 76.2679 121.011 76.3906 120.961 76.5259C120.91 76.6612 120.889 76.8059 120.9 76.95V76.84Z" fill="#DCB04D"/>
<path d="M72.94 43.36C78.51 47 81.3599 53.78 80.0899 59.6C79.6699 61.6 79.28 63.28 76.99 63.27C74.85 63.27 73.9899 61.56 73.2399 59.81C71.5599 55.67 71.47 50.47 72.94 43.36Z" fill="#DCB04D"/>
<path d="M109.51 65.52C111.66 72.28 113.15 77.83 110.02 83.59C108.83 85.78 107.18 86.66 104.71 85.92C102.04 85.13 102.96 82.92 103.11 81.37C103.64 75.88 106.27 71.2 109.51 65.52Z" fill="#DCB04D"/>
<path d="M121.83 75.9C127.93 75.28 134.06 73.76 140.52 76.68C137.039 80.1114 132.514 82.2858 127.66 82.86C123.45 83.33 120.47 81.86 120.9 76.86L120.83 76.93C121.52 76.93 121.92 76.59 121.91 75.86L121.83 75.9Z" fill="#DCB04D"/>
<path d="M147.27 58.25C151.39 59.52 155.36 60.43 158.77 62.98C153.77 66.14 147.58 65.68 145.46 62.15C141.55 55.67 143.46 50.24 151.24 46.3C151.62 50.87 150.06 54.69 147.27 58.25Z" fill="#DCB04D"/>
<path d="M108.05 33C101.63 40.21 97.9 40.61 91.22 35.45C88.71 33.52 89.58 27.02 93.22 22.2C95.1424 24.7046 95.9946 27.8687 95.59 31C95.36 33.72 96.26 34.25 98.59 33.37C101.46 32.29 104.35 32.63 108.05 33Z" fill="#DCB04D"/>
<path d="M65.6601 58.26C70.2001 62.87 73.5601 67 74.0001 72.81C74.1701 75.09 73.5701 77.37 71.0001 77.81C68.7101 78.19 67.4801 76.47 66.8201 74.39C64.9822 69.2171 64.5813 63.6427 65.6601 58.26Z" fill="#DCB04D"/>
<path d="M98.29 78.42C99.698 80.6613 100.567 83.1986 100.829 85.8325C101.091 88.4664 100.739 91.1252 99.8 93.6C99.08 95.66 97.52 97.51 94.92 96.94C92.32 96.37 92.68 93.94 92.77 92.05C93 87.09 95.43 83 98.29 78.42Z" fill="#DCB04D"/>
<path d="M89.1299 82.07C86.2099 87.77 83.2699 92.19 78.1299 94.54C76.3299 95.36 73.9099 95.67 72.6299 93.82C71.3499 91.97 72.5199 90.07 74.0999 88.61C78.0699 84.89 82.9999 83.47 89.1299 82.07Z" fill="#DCB04D"/>
<path d="M119.39 97.9C113.92 101.9 109.39 104.56 103.72 103.9C101.55 103.67 99.56 102.9 99.42 100.57C99.28 98.24 101.07 97.07 103.25 96.73C108.36 96 113.38 96.46 119.39 97.9Z" fill="#DCB04D"/>
<path d="M61.25 79.31C61.38 78.76 59.87 75.9 62.08 75.31C63.85 74.85 64.98 77.62 66.15 79.19C68.27 82.04 69.92 85.13 69.38 88.79C69.16 90.31 69.07 92.32 66.91 92.68C64.91 93.01 63.84 91.68 63.01 90.17C61.34 87.21 60.7 84 61.25 79.31Z" fill="#DCB04D"/>
<path d="M98.12 53.15C95.48 59.07 92.75 63.82 87 65.74C85.42 66.26 83 66.69 82.2 64.51C81.9517 63.6523 81.9772 62.7385 82.273 61.896C82.5687 61.0535 83.12 60.3243 83.85 59.81C88 57.26 91.76 53.83 98.12 53.15Z" fill="#DCB04D"/>
<path d="M128.59 87.55C124.48 90.9789 119.421 93.0721 114.09 93.55C111.84 93.75 109.46 92.77 109.09 90.43C108.64 87.91 110.83 86.74 113.09 86.27C117.93 85.19 122.69 86.28 128.59 87.55Z" fill="#DCB04D"/>
<path d="M91 70C89.4771 74.2173 86.5916 77.8065 82.8 80.2C80.74 81.61 78 81.81 76.31 80.2C74.18 78.11 76.67 76.55 77.89 74.83C81.05 70.37 85.96 70.45 90.53 69.58C90.72 69.72 90.88 69.87 91 70Z" fill="#DCB04D"/>
<path d="M137.55 51.24C138.496 55.1336 138.123 59.231 136.49 62.89C135.49 65.14 133.66 67.1 131.07 65.96C128.87 64.96 129.46 62.56 130.16 60.64C131.57 56.76 133 52.82 137.55 51.24Z" fill="#DCB04D"/>
<path d="M86.88 48.91C82.67 48.91 81.21 46.47 81.03 42.67C80.8305 38.9491 81.6941 35.2482 83.52 32C86.46 37.48 88.99 42.75 86.82 49L86.88 48.91Z" fill="#DCB04D"/>
<path d="M167 42.78C166.666 45.9694 165.255 48.9497 163 51.23C160.94 53.34 158.24 54.61 156.15 52C154.29 49.7 157.15 47.55 158.53 46.45C160.68 44.74 163.7 44.11 167 42.78Z" fill="#DCB04D"/>
<path d="M139.16 73.11C137.864 72.9948 136.585 72.7297 135.35 72.32C134.02 71.7 132.7 70.67 132.98 68.91C133.29 66.99 134.89 67 136.43 66.91C139.76 66.62 142.53 68.3 145.43 69.43C147.61 70.28 146.57 71.35 145.04 71.95C143.158 72.6604 141.171 73.0524 139.16 73.11Z" fill="#DCB04D"/>
<path d="M105 24.85C99.37 25.22 98.56 24.13 100.58 18.78C101.524 16.1071 103.205 13.7564 105.43 12C108.6 16.66 105.18 20.72 104.88 24.92L105 24.85Z" fill="#DCB04D"/>
<path d="M172.13 60.44C168.02 63.81 163.92 61.58 159.97 60.44C159.553 60.3456 159.161 60.1597 158.825 59.8958C158.488 59.6318 158.214 59.2964 158.023 58.9137C157.831 58.5309 157.727 58.1105 157.718 57.6827C157.709 57.255 157.795 56.8305 157.97 56.44C158.72 54.82 160.11 54.94 161.79 55.44C165.53 56.46 169.06 57.78 172.13 60.44Z" fill="#DCB04D"/>
<path d="M86.82 49C91.67 45.25 94.45 44.48 100.26 45.38C98.4 49.38 95.11 51.23 91.15 51.99C88.86 52.43 87.37 51.24 86.88 48.91L86.82 49Z" fill="#DCB04D"/>
<path d="M104.88 24.92C108.98 24.37 113.08 23.1 117.68 24.59C115.36 28.02 112.17 29.32 108.91 30.11C104.91 31.11 103.48 28.96 104.91 24.85L104.88 24.92Z" fill="#DCB04D"/>
<path d="M173.28 50C173.284 50.5367 173.145 51.0647 172.876 51.529C172.607 51.9934 172.218 52.377 171.75 52.64C170.49 53.64 169.18 54.81 167.36 54.2C167.11 54.12 166.9 53.3 167.01 52.93C167.6 51.02 168.73 49.72 171.01 49.93C171.73 49.94 172.51 50 173.28 50Z" fill="#DCB04D"/>
<path d="M114.76 17C114.38 18.82 113.31 20.41 111.37 20.68C110.1 20.86 110.22 19.33 110.26 18.4C110.33 16.3 112.06 15.74 113.6 15.29C114.71 15 114.81 16 114.76 17Z" fill="#DCB04D"/>
<path d="M78.06 164.23C78.06 163.63 78.06 163.03 77.99 162.44C80.0131 163.692 81.5235 165.624 82.25 167.89C81.6928 168.004 81.1139 167.94 80.5952 167.706C80.0765 167.473 79.6444 167.083 79.36 166.59L78.06 164.23Z" fill="#DCB04D"/>
<path d="M132.488 165.18V128.728H122.4L112.52 150.412L102.64 128.728H92.5V165.18H100.768V141.52L109.504 161.54H115.536L124.272 141.52L124.324 165.18H132.488ZM166.712 137.152H157.768L151.684 155.768L144.82 137.152H135.564L147.212 164.556L146.536 165.96C145.808 167.468 144.664 168.196 143.052 168.196C141.752 168.196 140.66 167.728 139.36 166.688L135.616 172.824C138.112 174.748 140.66 175.684 143.78 175.684C148.98 175.684 152.516 173.188 154.596 168.092L166.712 137.152Z" fill="#99CA3C"/>
<path d="M199.842 165.18H210.918L196.514 143.86L210.034 128.78H199.322L185.386 144.536V128.78H176.13V165.18H185.386V156.236L190.222 150.88L199.842 165.18ZM219.45 124.36C216.694 124.36 214.718 126.336 214.718 129.092C214.718 131.9 216.694 133.876 219.45 133.876C222.206 133.876 224.182 131.9 224.182 129.092C224.182 126.336 222.206 124.36 219.45 124.36ZM223.87 165.18V137.152H214.926V165.18H223.87ZM241.11 136.736C234.61 136.736 229.722 139.856 229.722 145.628C229.67 155.456 244.178 153.324 244.178 157.432C244.178 158.732 242.878 159.356 241.11 159.356C237.99 159.356 234.35 158.108 231.178 155.872L228.318 161.592C231.698 164.192 236.222 165.544 240.902 165.544C247.662 165.544 252.706 162.372 252.706 156.6C252.758 146.824 237.99 148.696 237.99 144.848C237.99 143.548 239.134 142.924 240.746 142.924C243.086 142.924 246.206 143.912 249.586 145.732L252.654 139.908C249.222 137.88 245.166 136.736 241.11 136.736ZM270.318 136.736C265.638 136.736 261.686 137.88 257.318 139.908L259.866 145.836C262.83 144.328 265.898 143.496 268.238 143.496C271.878 143.496 273.698 145.16 273.698 147.916V148.332H266.314C259.346 148.384 255.55 151.504 255.55 156.808C255.55 161.956 259.19 165.596 265.17 165.596C268.966 165.596 271.93 164.348 273.75 161.956V165.18H282.538V146.876C282.486 140.532 278.014 136.736 270.318 136.736ZM267.926 159.512C265.43 159.512 263.974 158.212 263.974 156.184C263.974 154.104 265.326 153.168 268.03 153.168H273.698V155.664C273.126 157.952 270.734 159.512 267.926 159.512ZM307.27 136.736C303.11 136.788 299.886 138.452 297.91 141.728V137.152H288.914V165.18H297.91V150.36C298.274 147.032 300.354 144.692 303.63 144.692C306.646 144.692 308.57 146.72 308.57 149.996V165.18H317.514V147.5C317.514 140.948 313.458 136.736 307.27 136.736Z" fill="#DCB04D"/>
</svg>
